<svg xmlns="http://www.w3.org/2000/svg" xmlns:xlink="http://www.w3.org/1999/xlink" version="1.1" id="Layer_1" x="0px" y="0px" width="100px" height="100px" viewBox="0 0 100 100" enable-background="new 0 0 100 100" xml:space="preserve">
<g id="Captions">
	<rect x="-192" width="185" height="99"/>
	<rect y="-36" width="100" height="30"/>
	<text transform="matrix(1 0 0 1 66 -19.5)" fill="#000000" font-family="'Helvetica'" font-size="2.4">http://thenounproject.com</text>
	<text transform="matrix(1 0 0 1 7.166 -24.5)" fill="#000000" font-family="'Helvetica-Bold'" font-size="6.1578">The Noun Project</text>
	<text transform="matrix(1 0 0 1 8.2861 -19.7002)" fill="#000000" font-family="'Helvetica-Bold'" font-size="4">Icon Template</text>
	<text transform="matrix(1 0 0 1 -178.5 10.5)" fill="#000000" font-family="'Helvetica-Bold'" font-size="6.1578">Reminders</text>
	<line fill="#000000" stroke="#FFFFFF" stroke-miterlimit="10" x1="8" y1="-14.5" x2="18" y2="-14.5"/>
	<line fill="#000000" stroke="#FFFFFF" stroke-miterlimit="10" x1="-179" y1="16.5" x2="-162" y2="16.5"/>
	<g>
		<g>
			<g>
				<rect x="-170.802" y="31.318" fill="#000000" width="8.721" height="8.642"/>
				<path fill="#000000" d="M-164.455,42.312h4.747v-4.703h-4.747V42.312z M-159.266,42.749h-5.63V37.17h5.63V42.749      L-159.266,42.749z M-166.221,44.062h8.279v-8.203h-8.279V44.062L-166.221,44.062z M-157.5,44.5h-9.163v-9.079h9.163V44.5      L-157.5,44.5z"/>
				<polygon fill="#000000" points="-166.149,44.133 -166.292,43.991 -158.013,35.787 -157.871,35.929     "/>
			</g>
		</g>
	</g>
	<rect x="-179" y="58" fill="none" width="35" height="32.5"/>
	<text transform="matrix(1 0 0 1 -179 60.1572)" fill="#000000" font-family="'Helvetica-Bold'" font-size="3">Strokes</text>
	<text transform="matrix(1 0 0 1 -179 65.1572)" fill="#000000" font-family="'Helvetica'" font-size="2.4">Try to keep strokes at 4px</text>
	<text transform="matrix(1 0 0 1 -179 70.1572)" fill="#000000" font-family="'Helvetica'" font-size="2.4">Minimum stroke weight is 2px</text>
	<text transform="matrix(1 0 0 1 -179 74.6572)" fill="#000000" font-family="'Helvetica'" font-size="2.4">For thicker strokes use even </text>
	<text transform="matrix(1 0 0 1 -179 77.6572)" fill="#000000" font-family="'Helvetica'" font-size="2.4">numbers: 6px, 8px etc.</text>
	<text transform="matrix(1 0 0 1 -179 82.1572)" fill="#000000" font-family="'Helvetica-Bold'" font-size="2.4">Remember to expand strokes </text>
	<text transform="matrix(1 0 0 1 -179 85.1572)" fill="#000000" font-family="'Helvetica-Bold'" font-size="2.4">before saving as an SVG </text>
	<rect x="-136.5" y="58" fill="none" width="35" height="32.5"/>
	<text transform="matrix(1 0 0 1 -136.5 60.1572)" fill="#000000" font-family="'Helvetica-Bold'" font-size="3">Size</text>
	<text transform="matrix(1 0 0 1 -136.5 65.1572)" fill="#000000" font-family="'Helvetica'" font-size="2.4">Cannot be wider or taller than </text>
	<text transform="matrix(1 0 0 1 -136.5 68.6572)" fill="#000000" font-family="'Helvetica'" font-size="2.4">100px (artboard size)</text>
	<text transform="matrix(1 0 0 1 -136.5 73.6572)" fill="#000000" font-family="'Helvetica'" font-size="2.4">Scale your icon to fill as much of </text>
	<text transform="matrix(1 0 0 1 -136.5 76.6572)" fill="#000000" font-family="'Helvetica'" font-size="2.4">the artboard as possible</text>
	<rect x="-94" y="58" fill="none" width="35" height="32.5"/>
	<text transform="matrix(1 0 0 1 -94 60.1572)" fill="#000000" font-family="'Helvetica-Bold'" font-size="3">Ungroup</text>
	<text transform="matrix(1 0 0 1 -94 65.1572)" fill="#000000" font-family="'Helvetica'" font-size="2.4">If your design has more than one </text>
	<text transform="matrix(1 0 0 1 -94 68.1572)" fill="#000000" font-family="'Helvetica'" font-size="2.4">shape, make sure to ungroup</text>
	<rect x="-50" y="58" fill="none" width="35" height="32.5"/>
	<text transform="matrix(1 0 0 1 -50 60.1572)" fill="#000000" font-family="'Helvetica-Bold'" font-size="3">Save as</text>
	<text transform="matrix(1 0 0 1 -50 65.1572)" fill="#000000" font-family="'Helvetica'" font-size="2.4">Save as .SVG and make sure </text>
	<text transform="matrix(1 0 0 1 -50 68.1572)" fill="#000000" font-family="'Helvetica'" font-size="2.4">&#8220;Use Artboards&#8221; is checked</text>
	<text transform="matrix(1.0074 0 0 1 -125.542 30.5938)" fill="#000000" font-family="'Helvetica'" font-size="2.5731">100px</text>
	<text transform="matrix(1.0074 0 0 1 -41 39)" fill="#000000" font-family="'Helvetica-Bold'" font-size="5.1462">.SVG</text>
	<rect x="-126.514" y="34.815" fill="#000000" width="10.261" height="10.185"/>
	<rect x="-126.477" y="31.766" fill="#000000" width="0.522" height="2.337"/>
	<rect x="-116.812" y="31.766" fill="#000000" width="0.523" height="2.337"/>
	<rect x="-127" y="32.337" fill="#000000" width="11.233" height="0.572"/>
	<g>
		<rect x="-83.805" y="33.844" fill="#000000" width="10.305" height="10.156"/>
		<rect x="-76.809" y="28.707" fill="#000000" width="3.308" height="3.261"/>
	</g>
	<rect x="-178.5" y="22.5" fill="#000000" stroke="#FFFFFF" stroke-miterlimit="10" width="30" height="30"/>
	<rect x="-136.5" y="22.5" fill="#000000" stroke="#FFFFFF" stroke-miterlimit="10" width="30" height="30"/>
	<rect x="-93.5" y="22.5" fill="#000000" stroke="#FFFFFF" stroke-miterlimit="10" width="30" height="30"/>
	<rect x="-49.5" y="22.5" fill="#000000" stroke="#FFFFFF" stroke-miterlimit="10" width="30" height="30"/>
</g>
<path fill="none" d="M37.496,56.342c-0.711-2.605-1.247-4.188-1.625-5.15C36.345,53.029,36.898,54.85,37.496,56.342z"/>
<path d="M6.259,50.348L6.18,56.707l-0.157,8.479c0,0-0.706,4.789,1.021,11.541l0.314,1.728c0,0,0.941,2.276,3.846,2.437h3.454  c0,0-0.336-2.354-0.574-5.884c-0.063-0.883-0.129-1.838-0.172-2.85c-0.044-1.023-0.124-2.05-0.12-3.207  c0.007-1.074-0.094-2.211-0.096-3.349c-0.047-1.139-0.15-2.283-0.219-3.435c-0.022-1.144-0.175-2.317-0.309-3.468  c-0.14-1.135-0.222-2.325-0.337-3.35c-0.22-1.045-0.303-2.093-0.554-3.043c-0.246-0.951-0.437-1.871-0.735-2.679  c-0.248-0.831-0.557-1.558-0.82-2.215c-0.285-0.643-0.554-1.203-0.795-1.652c-0.254-0.442-0.442-0.802-0.602-1.027  c-0.146-0.237-0.241-0.352-0.241-0.352s0.12,0.087,0.321,0.28c0.211,0.186,0.503,0.477,0.846,0.873  c0.336,0.399,0.738,0.9,1.138,1.514c0.389,0.62,0.847,1.319,1.21,2.148c0.43,0.803,0.765,1.724,1.108,2.708  c0.36,0.978,0.576,2.053,0.854,3.153c0.188,1.161,0.366,2.234,0.519,3.398c0.156,1.148,0.332,2.307,0.384,3.516  c0.055,1.199,0.134,2.402,0.16,3.578c0.001,1.178-0.015,2.32-0.075,3.453c-0.051,1.094-0.101,2.15-0.147,3.152  c-0.043,1.012-0.109,1.967-0.173,2.85c-0.238,3.529-0.575,5.883-0.575,5.883v5.338c0,0,1.57,0.785,3.454,0v-5.418h0.062  c-0.01-0.069-0.018-0.125-0.028-0.201c-0.057-0.52-0.178-1.164-0.206-1.887c-0.047-0.727-0.1-1.545-0.133-2.438  c-0.032-0.926-0.062-1.873-0.067-2.902c-0.013-1.025-0.033-2.105-0.016-3.221c-0.007-1.107,0.054-2.301,0.142-3.475  c0.056-1.185,0.256-2.384,0.383-3.584c0.183-1.197,0.453-2.384,0.675-3.556c0.314-1.155,0.62-2.293,0.987-3.371  c0.408-1.065,0.757-2.11,1.224-3.048c0.468-0.938,0.876-1.829,1.354-2.609c0.483-0.78,0.945-1.477,1.35-2.088  c0.407-0.609,0.848-1.068,1.171-1.479c0.672-0.803,1.071-1.251,1.071-1.251s-0.26,0.542-0.742,1.471  c-0.232,0.467-0.562,1.018-0.861,1.674c-0.285,0.662-0.604,1.403-0.97,2.191c-0.348,0.8-0.623,1.722-0.995,2.648  c-0.361,0.934-0.578,1.978-0.925,3.008c-0.303,1.049-0.488,2.168-0.782,3.271c-0.19,1.133-0.428,2.273-0.583,3.432  c-0.139,1.162-0.361,2.311-0.437,3.465c-0.087,1.162-0.261,2.265-0.307,3.388c-0.065,1.112-0.164,2.188-0.251,3.205  c-0.08,1.014-0.183,1.998-0.276,2.854c-0.076,0.892-0.167,1.707-0.25,2.43c-0.088,0.726-0.109,1.345-0.161,1.865  c-0.007,0.078-0.012,0.135-0.019,0.207h16.308c0,0,4.554-0.785,4.946-2.981l0.392-1.336v-8.05c-0.462-2.678-1.097-5.899-1.937-9.262  c-0.265-1.061-0.511-2.002-0.74-2.838c-0.598-1.492-1.15-3.312-1.625-5.15c-0.472-1.202-0.697-1.434-0.697-1.434  c-3.886-8.243-4.239-8.832-4.828-14.013c-0.209-1.838,0.061-3.614,0.532-5.271c-0.027-0.132-0.048-0.224-0.048-0.224  s-1.884-4.476-3.611-8.087c-0.642-1.34-1.135-2.752-1.474-4.199c-0.583-2.489-0.811-5.051-2.06-7.342  c-1.123-2.059-4.013-3.501-6.098-2.006c-2.799,2.007-3.007,5.855-4.579,8.68l-1.726,3.142c-1.289,1.934-2.629,3.855-3.7,5.92  c-0.342,0.659-0.671,1.321-0.974,1.989c-0.966,2.139-1.655,4.35-1.607,6.771c0.079,3.925,0.707,9.028,0.707,9.028L6.259,50.348z   M17.721,84.578c-0.006,0.117-0.017,0.264-0.042,0.41c-0.014,0.076-0.028,0.158-0.043,0.242c-0.014,0.1-0.081,0.008-0.113,0.051  c-0.162,0.055-0.358,0.068-0.566,0.102c-0.209,0.037-0.431,0.037-0.653,0.041c-0.444,0.004-0.88-0.062-1.206-0.139  c-0.033-0.039-0.098,0.051-0.116-0.033c-0.016-0.084-0.031-0.164-0.045-0.24c-0.03-0.145-0.048-0.299-0.053-0.42  c-0.012-0.244,0.012-0.406,0.012-0.406S15,84.059,15.14,83.859c0.061-0.094,0.134-0.207,0.218-0.338  c0.039-0.062,0.081-0.127,0.124-0.197c0.042-0.068,0.04,0.037,0.072,0.014c0.2,0.047,0.481,0.09,0.757,0.086  c0.138-0.004,0.277,0.002,0.401-0.025c0.125-0.022,0.247-0.022,0.34-0.061c0.032,0.023,0.028-0.088,0.073-0.004  c0.044,0.068,0.086,0.133,0.125,0.193c0.089,0.129,0.167,0.24,0.231,0.332c0.151,0.207,0.238,0.326,0.238,0.326  S17.731,84.338,17.721,84.578z M28.242,49.118c-0.219,0.92-0.458,1.901-0.674,2.931c-0.085,0.516-0.212,1.043-0.271,1.58  c-0.036,0.52-0.108,1.123-0.152,1.591c0.007,0.589,0.014,1.188,0.021,1.792c0.019,0.6,0.116,1.147,0.15,1.73  c0.132,1.158,0.333,2.374,0.625,3.558l0.185,0.871l0.242,0.907c0.168,0.596,0.305,1.223,0.496,1.785  c0.189,0.566,0.367,1.133,0.534,1.695c0.176,0.561,0.398,1.106,0.59,1.647c0.375,1.092,0.855,2.101,1.24,3.088  c0.447,0.981,0.846,1.896,1.272,2.709c0.843,1.629,1.774,2.838,2.62,3.494c0.425,0.315,0.793,0.537,1.062,0.651  c0.274,0.109,0.42,0.166,0.42,0.166s-0.157-0.021-0.452-0.062c-0.293-0.055-0.729-0.164-1.243-0.418  c-1.029-0.502-2.291-1.635-3.387-3.231c-0.562-0.789-1.101-1.691-1.625-2.634c-0.494-0.979-1.101-1.979-1.54-3.098  c-0.491-1.092-0.952-2.258-1.347-3.474c-0.216-0.604-0.354-1.194-0.536-1.799l-0.258-0.901l-0.224-0.966  c-0.283-1.258-0.473-2.528-0.596-3.824c-0.039-0.648-0.105-1.319-0.085-1.932c0.027-0.604,0.053-1.201,0.079-1.789  c0.093-0.699,0.183-1.242,0.292-1.846c0.12-0.58,0.303-1.121,0.446-1.658c0.311-1.061,0.688-2.025,1.023-2.904  c0.676-1.756,1.259-3.2,1.369-4.243c0.022-0.253,0.013-0.488-0.071-0.617c-0.075-0.137-0.257-0.141-0.391-0.108  c-0.274,0.073-0.406,0.176-0.406,0.176s0.096-0.128,0.369-0.277c0.123-0.064,0.381-0.153,0.602,0.048  c0.207,0.195,0.259,0.482,0.292,0.769C29.028,45.697,28.691,47.294,28.242,49.118z M20.447,10.068c0,0,0.088,0.033,0.243,0.09  c0.184,0.062,0.41,0.166,0.656,0.296c0.255,0.123,0.526,0.313,0.814,0.497c0.267,0.229,0.572,0.422,0.813,0.7  c0.246,0.269,0.501,0.511,0.669,0.805c0.174,0.284,0.368,0.511,0.45,0.765c0.192,0.467,0.32,0.779,0.32,0.779  s-0.229-0.238-0.572-0.594c-0.149-0.188-0.413-0.326-0.644-0.501c-0.225-0.186-0.526-0.301-0.796-0.434  c-0.265-0.142-0.58-0.195-0.834-0.288c-0.278-0.048-0.525-0.112-0.743-0.124c-0.222-0.023-0.389-0.029-0.488-0.02  c-0.127,0.003-0.199,0.004-0.199,0.004L20.447,10.068z M19.133,10.545c0,0,0.039,0.355,0.075,0.972  c0.027,0.617,0.068,1.497,0.086,2.541c0.022,1.045,0.004,2.256-0.058,3.547c-0.038,0.645-0.012,1.317-0.048,1.995  c-0.033,0.678-0.066,1.366-0.1,2.054c-0.054,0.687-0.107,1.374-0.16,2.05c-0.049,0.676-0.165,1.341-0.173,1.984  c-0.069,1.286-0.176,2.488-0.305,3.523c-0.237,2.069-0.574,3.474-0.574,3.474c0.001,0-0.336-1.37-0.575-3.463  c-0.13-1.046-0.237-2.271-0.307-3.587c-0.081-1.316,0.028-2.707,0.098-4.103c0.094-1.394,0.21-2.786,0.394-4.083  c0.206-1.297,0.437-2.501,0.672-3.526c0.217-1.028,0.462-1.87,0.657-2.456C19.006,10.878,19.133,10.545,19.133,10.545z   M14.802,13.266c0.028-0.258,0.181-0.504,0.315-0.801c0.077-0.141,0.131-0.314,0.247-0.438l0.328-0.416  c0.217-0.296,0.52-0.488,0.779-0.727c0.288-0.174,0.557-0.375,0.815-0.481c0.245-0.124,0.479-0.215,0.667-0.268  c0.153-0.048,0.24-0.076,0.24-0.076l0.192,1.991c0,0-0.068-0.006-0.187-0.018c-0.085-0.016-0.233-0.024-0.439-0.01  c-0.204-0.008-0.423,0.057-0.686,0.088c-0.225,0.091-0.525,0.132-0.757,0.28l-0.373,0.205c-0.138,0.059-0.219,0.171-0.328,0.257  c-0.197,0.187-0.43,0.349-0.535,0.552c-0.266,0.392-0.442,0.653-0.442,0.653S14.704,13.742,14.802,13.266z M7.197,38.356  c0.011-0.191,0.031-0.483,0.146-0.833c0.104-0.354,0.286-0.774,0.58-1.21c0.3-0.425,0.687-0.897,1.206-1.285  c0.25-0.212,0.525-0.407,0.827-0.581c0.293-0.197,0.618-0.347,0.954-0.493c0.334-0.163,0.685-0.297,1.05-0.411  c0.362-0.131,0.74-0.239,1.125-0.311c0.771-0.184,1.57-0.301,2.389-0.373c0.82-0.031,1.627-0.089,2.481-0.052l1.191,0.073  c0.417,0.052,0.833,0.104,1.246,0.156c0.417,0.04,0.816,0.132,1.208,0.23c0.393,0.093,0.782,0.175,1.156,0.308  c0.758,0.213,1.463,0.528,2.112,0.851c0.318,0.183,0.635,0.337,0.92,0.528c0.279,0.205,0.555,0.386,0.8,0.589  c0.997,0.8,1.61,1.693,1.923,2.346c0.168,0.322,0.242,0.604,0.295,0.786c0.049,0.187,0.062,0.287,0.062,0.287  s-0.204-0.359-0.684-0.848c-0.475-0.492-1.229-1.094-2.231-1.616c-0.505-0.255-1.07-0.484-1.676-0.703  c-0.616-0.199-1.273-0.372-1.966-0.518c-0.685-0.153-1.431-0.239-2.155-0.326c-0.366-0.036-0.736-0.073-1.107-0.109L17.856,34.8  c-0.736-0.056-1.526-0.023-2.271-0.019c-0.745,0.059-1.486,0.058-2.181,0.174c-0.356,0.028-0.688,0.11-1.02,0.169  c-0.337,0.051-0.658,0.122-0.958,0.22c-0.312,0.078-0.604,0.177-0.877,0.29c-0.287,0.093-0.55,0.208-0.79,0.342  c-0.498,0.244-0.908,0.541-1.261,0.83c-0.333,0.305-0.611,0.603-0.799,0.882c-0.389,0.554-0.5,0.957-0.5,0.957  S7.188,38.55,7.197,38.356z M7.033,69.438c0.006-0.992,0.061-1.979,0.089-2.967l0.077-2.934c0.013-0.988,0.077-1.975,0.119-2.959  L7.387,59.1c0.018-0.492,0.075-0.99,0.087-1.474c0.024-0.964,0.033-1.929,0.072-2.896l0.062-1.447l-0.065-1.393l-0.009-0.104  c-0.046-0.754-0.021-1.496-0.117-2.278c-0.045-0.388-0.08-0.779-0.112-1.171l-0.1-1.223c-0.025-0.407-0.085-0.822-0.047-1.214  l0.054-1.19l0.01-0.149c0.007-0.098,0.019-0.117,0.028-0.179c0.022-0.104,0.032-0.205,0.065-0.311  c0.06-0.208,0.112-0.417,0.256-0.618c0.068-0.1,0.173-0.191,0.301-0.239c0.136-0.034,0.269-0.016,0.369,0.038  c0.202,0.102,0.335,0.26,0.452,0.422c-0.154-0.123-0.333-0.23-0.506-0.259c-0.184-0.03-0.27,0.061-0.323,0.208  c-0.059,0.144-0.067,0.336-0.072,0.516c-0.007,0.088,0.007,0.188,0.009,0.279c0.003,0.037,0.003,0.116,0.008,0.117l0.026,0.147  l0.183,1.18c0.042,0.402,0.18,0.761,0.256,1.138l0.273,1.122c0.097,0.389,0.193,0.778,0.278,1.17  c0.186,0.776,0.264,1.622,0.397,2.439L9.213,51.63l0.182,1.558l0.041,1.514c0.018,1.008,0.005,2.018,0.008,3.027  c-0.019,0.998-0.102,1.975-0.168,2.961c-0.073,0.983-0.125,1.971-0.226,2.953l-0.136,1.475l-0.068,0.738  c-0.021,0.303-0.068,0.506-0.102,0.762c-0.152,0.979-0.276,1.957-0.451,2.934c-0.323,1.951-0.693,3.9-1.17,5.84  C7.005,73.398,6.996,71.416,7.033,69.438z"/>
<path d="M32.984,38.629c0.344-0.107,0.744-0.133,1.221-0.2c0.25-0.023,0.523-0.078,0.803-0.08c0.28,0.013,0.574,0.025,0.881,0.039  c0.608,0.054,1.311,0.007,1.988,0.186c0.686,0.146,1.417,0.293,2.165,0.485c0.764,0.152,1.487,0.458,2.233,0.753  c0.743,0.301,1.499,0.607,2.254,0.914c0.744,0.331,1.419,0.779,2.12,1.156c0.698,0.383,1.356,0.812,2.006,1.197  c0.322,0.199,0.645,0.382,0.948,0.585c0.297,0.208,0.571,0.438,0.846,0.648c0.55,0.42,1.056,0.837,1.52,1.224  c1.866,1.535,2.987,2.691,2.987,2.691s-1.521-0.613-3.617-1.73c-0.526-0.276-1.095-0.578-1.68-0.917  c-0.578-0.354-1.225-0.657-1.887-0.977c-0.657-0.331-1.349-0.643-2.023-1.013c-0.686-0.344-1.357-0.76-2.073-1.056  c-0.709-0.312-1.419-0.624-2.117-0.93c-0.705-0.288-1.363-0.688-2.058-0.873c-0.684-0.222-1.337-0.476-1.964-0.708  c-0.311-0.136-0.622-0.204-0.922-0.274c-0.301-0.078-0.593-0.154-0.873-0.226c-0.282-0.075-0.553-0.146-0.811-0.215  c-0.258-0.066-0.504-0.078-0.737-0.117c-0.354-0.034-0.673-0.099-0.958-0.129c0.334,0.56,0.577,0.924,0.577,0.924  s0.079,0.863,0.629,4.396c0.266,1.711,0.773,4.27,1.428,6.81c0.378,0.963,0.914,2.545,1.625,5.15  c0.282,0.703,0.573,1.338,0.871,1.857c1.806,3.14,1.806,4.004,1.806,4.004v6.238c0.704,4.074,1.007,6.871,1.007,6.871L42.71,86.97  l0.353,5.183l1.766,0.354c0,0,1.884,0.117,2.12-0.59l-0.589-8.832l-0.353-14.602c0,0-0.235-7.42,1.414-13.309  c0,0,0.117-2.236,2.237,0.824c0,0,2.591,2.355,5.417,6.595c0,0,3.415,3.298,4.356,10.363s0.941,8.832,0.941,8.832  s0.295,3.532,4.238,4.711c4.806,1.435,18.843,1.531,18.843,1.531s4.004-0.119,7.653-1.886c3.652-1.768,4.947-3.77,4.947-3.77  s2.002-4.826,0.705-8.949c-1.295-4.121-6.006-7.771-6.006-7.771s-2.826-2.002-10.598-1.648l-5.182-7.771c0,0-3.887-6.947-5.652-9.42  c0,0-4.121-5.77-6.713-9.186c-2.59-3.415-8.008-11.069-8.008-11.069l-9.067-11.658c0,0-2.12-3.297-5.064-2.12  c0,0-5.653,7.418-6.594,10.245c-0.608,1.824-2.143,4.435-3,7.448c0.117,0.564,0.424,2.188,0.424,3.779  C31.302,35.462,32.253,37.353,32.984,38.629z M43.493,83.344c-0.25-1.811-0.541-3.92-0.853-6.182  c-0.122-1.135-0.248-2.309-0.376-3.5c-0.122-1.191-0.268-2.402-0.373-3.615c-0.192-2.428-0.433-4.854-0.574-7.133  c-0.154-2.279-0.301-4.406-0.388-6.232c-0.206-3.649-0.279-6.09-0.279-6.09l2-0.018c0,0-0.052,2.422-0.034,6.061  c-0.006,1.82,0.03,3.942,0.067,6.219c0.023,2.275,0.139,4.699,0.206,7.127c0.042,1.213,0.126,2.425,0.186,3.617  c0.066,1.193,0.132,2.367,0.196,3.504c0.194,2.271,0.376,4.388,0.532,6.201c0.475,3.613,0.792,6.023,0.792,6.023  S44.154,86.932,43.493,83.344z M82.629,65.628c0.553,0.349,1.176,0.825,1.785,1.294c0.305,0.229,0.611,0.449,0.914,0.637  c0.309,0.183,0.607,0.349,0.92,0.441c0.152,0.055,0.305,0.115,0.469,0.131c0.08,0.014,0.158,0.029,0.238,0.049  c0.01,0.019,0.186,0.021,0.27,0.033c0.229,0.021,0.346,0.02,0.531,0.033c0.178,0,0.357,0.006,0.525-0.004  c0.348-0.008,0.65-0.061,0.928-0.119c0.111-0.045,0.266-0.068,0.348-0.125c0.035-0.004,0.142-0.088,0.123-0.023l0.187-0.17  c0.129-0.121,0.295-0.332,0.399-0.551c0.107-0.215,0.193-0.424,0.258-0.602c0.121-0.355,0.177-0.584,0.177-0.584  s0.112,0.199,0.221,0.598c0.045,0.197,0.101,0.447,0.097,0.746c0.002,0.295-0.023,0.654-0.232,1.082l-0.111,0.227  c-0.086,0.103-0.174,0.205-0.264,0.312c-0.16,0.199-0.357,0.299-0.557,0.451c-0.402,0.231-0.851,0.416-1.306,0.512  c-0.229,0.062-0.461,0.086-0.696,0.119c-0.229,0.023-0.533,0.043-0.728,0.035c-0.465-0.004-1.047-0.082-1.535-0.265  c-1.021-0.356-1.801-1.038-2.371-1.663c-0.569-0.636-1.008-1.228-1.385-1.773c-0.76-1.072-1.146-1.912-1.146-1.912  S81.537,64.896,82.629,65.628z M57.025,49.055c0.687,0.346,1.377,0.74,2.002,1.24c1.271,0.977,2.408,2.195,3.47,3.479l0.401,0.482  l0.401,0.516c0.257,0.332,0.513,0.666,0.771,1.004c0.525,0.662,1.043,1.353,1.525,2.101c1.008,1.465,1.951,2.947,2.906,4.429  c0.941,1.481,1.885,2.965,2.811,4.426c0.951,1.436,1.769,2.987,2.603,4.424c0.767,1.484,1.537,2.897,2.119,4.32  c0.307,0.705,0.604,1.391,0.893,2.055c0.25,0.652,0.47,1.373,0.654,1.994c0.379,1.271,0.688,2.424,1.062,3.406  c0.371,0.979,0.779,1.799,1.213,2.409c0.427,0.621,0.877,1.017,1.191,1.277c0.342,0.231,0.523,0.354,0.523,0.354  s-0.203-0.092-0.582-0.264c-0.355-0.209-0.907-0.523-1.439-1.117c-0.546-0.574-1.107-1.373-1.605-2.352  c-0.51-0.973-0.969-2.117-1.448-3.34c-0.252-0.623-0.483-1.203-0.804-1.854c-0.323-0.621-0.657-1.262-1.002-1.922  c-0.653-1.34-1.516-2.67-2.303-4.097c-0.867-1.389-1.734-2.801-2.697-4.254c-0.948-1.45-1.912-2.926-2.875-4.399  c-0.934-1.489-1.859-2.987-2.797-4.388c-0.453-0.711-0.939-1.413-1.438-2.104c-0.244-0.347-0.488-0.69-0.729-1.032l-0.349-0.485  l-0.374-0.488c-0.999-1.285-1.968-2.487-3.039-3.427c-0.525-0.487-1.104-0.846-1.654-1.199c-0.277-0.132-0.553-0.263-0.82-0.391  c-0.271-0.135-0.643-0.183-0.949-0.275c-1.115-0.33-2.289-0.083-3.227,0.262c-0.941,0.379-1.7,0.896-2.214,1.433  c-0.515,0.535-0.838,1.048-0.995,1.42c-0.161,0.379-0.22,0.594-0.22,0.594s0.021-0.221,0.116-0.624  c0.101-0.409,0.321-1.001,0.797-1.646c0.468-0.647,1.193-1.333,2.195-1.87c0.991-0.503,2.295-0.972,3.778-0.69  c0.33,0.068,0.646,0.071,1.01,0.194C56.271,48.787,56.646,48.92,57.025,49.055z M32.721,29.855c0.062-0.721,0.127-1.469,0.296-2.21  c0.121-0.752,0.319-1.498,0.533-2.238c0.196-0.747,0.479-1.463,0.742-2.173c0.268-0.708,0.608-1.373,0.908-2.024  c0.658-1.278,1.343-2.43,2.033-3.347c1.331-1.869,2.533-2.844,2.533-2.844s-0.16,0.344-0.439,0.945  c-0.277,0.598-0.661,1.45-1.102,2.467c-0.214,0.51-0.445,1.062-0.69,1.646c-0.257,0.575-0.455,1.214-0.727,1.84  c-0.227,0.644-0.46,1.309-0.698,1.985c-0.206,0.685-0.469,1.362-0.641,2.065c-0.212,0.692-0.401,1.39-0.556,2.084  c-0.085,0.346-0.17,0.689-0.254,1.028c-0.065,0.343-0.13,0.681-0.194,1.014c-0.139,0.667-0.245,1.314-0.324,1.935  c-0.091,0.62-0.187,1.208-0.219,1.756c-0.055,0.552-0.105,1.059-0.15,1.507c-0.006,0.449-0.032,0.846-0.049,1.175  c-0.04,0.658-0.08,1.044-0.08,1.044s-0.126-0.356-0.315-0.997c-0.092-0.321-0.208-0.712-0.319-1.168  c-0.09-0.457-0.164-0.978-0.235-1.55c-0.033-0.286-0.084-0.585-0.105-0.896c-0.006-0.311-0.012-0.632-0.018-0.962  c-0.004-0.332-0.009-0.673-0.014-1.021C32.638,30.567,32.694,30.216,32.721,29.855z"/>
<path d="M38.367,58.199c-0.298-0.52-0.589-1.154-0.871-1.857c0.229,0.836,0.475,1.777,0.74,2.838  c0.84,3.361,1.475,6.584,1.937,9.262v-6.237C40.172,62.203,40.172,61.339,38.367,58.199z"/>
<path d="M30.346,35.745c0.589,5.181,0.942,5.77,4.828,14.013c0,0,0.225,0.231,0.697,1.434c-0.655-2.54-1.163-5.098-1.428-6.81  c-0.55-3.533-0.629-4.396-0.629-4.396s-0.243-0.364-0.577-0.924c-0.087-0.009-0.186-0.029-0.263-0.026  c-0.334,0.002-0.616-0.03-0.807-0.021c-0.189,0.019-0.291,0.028-0.291,0.028s0.09-0.045,0.258-0.131  c0.172-0.07,0.435-0.163,0.788-0.268c0.019-0.007,0.043-0.007,0.062-0.014c-0.731-1.276-1.683-3.167-1.683-4.375  c0-1.591-0.307-3.215-0.424-3.779C30.406,32.131,30.137,33.907,30.346,35.745z"/>
<path fill="#000000" d="M18.386,82.24c0,0,0.06-0.533,0.14-1.432h-0.352C18.299,81.715,18.386,82.24,18.386,82.24z"/>
<path fill="#000000" d="M32.922,38.643c-0.353,0.105-0.616,0.198-0.788,0.268c-0.168,0.086-0.258,0.131-0.258,0.131  s0.101-0.01,0.291-0.028c0.191-0.009,0.473,0.023,0.807,0.021c0.077-0.003,0.176,0.017,0.263,0.026  c-0.08-0.133-0.165-0.279-0.252-0.432C32.965,38.635,32.941,38.636,32.922,38.643z"/>
</svg>